<?xml version="1.0" encoding="UTF-8" standalone="no" ?>
<!DOCTYPE svg PUBLIC "-//W3C//DTD SVG 1.1//EN" "http://www.w3.org/Graphics/SVG/1.1/DTD/svg11.dtd">
<svg xmlns="http://www.w3.org/2000/svg" xmlns:xlink="http://www.w3.org/1999/xlink" version="1.1" width="1280" height="1024" viewBox="0 0 1280 1024" xml:space="preserve">
<desc>Created with Fabric.js 4.4.0</desc>
<defs>
</defs>
<g transform="matrix(1 0 0 1 640 512)" id="background-logo"  >
<rect style="stroke: none; stroke-width: 0; stroke-dasharray: none; stroke-linecap: butt; stroke-dashoffset: 0; stroke-linejoin: miter; stroke-miterlimit: 4; fill: rgb(8,45,63); fill-rule: nonzero; opacity: 1;"  paint-order="stroke"  x="-640" y="-512" rx="0" ry="0" width="1280" height="1024" />
</g>
<g transform="matrix(1.398787405186843 0 0 1.398787405186843 217.29812500000003 512)" id="logo-logo"  >
<g style=""  paint-order="stroke"   >
		<g transform="matrix(1.520749961167096 0 0 -1.520749961167096 -60.71563212131406 0)"  >
<path style="stroke: none; stroke-width: 1; stroke-dasharray: none; stroke-linecap: butt; stroke-dashoffset: 0; stroke-linejoin: miter; stroke-miterlimit: 4; fill: rgb(74,179,232); fill-rule: nonzero; opacity: 1;"  paint-order="stroke"  transform=" translate(21.63448215338215, -12.43565087844231)" d="M 0 0 C -0.234 0.027 -0.467 0.062 -0.701 0.096 C -8.597 1.213 -15.919 5.812 -20.216 13.254 C -24.512 20.695999999999998 -24.835 29.336999999999996 -21.854 36.734 C -21.767 36.953 -21.68 37.172000000000004 -21.586 37.389 C -19.409999999999997 42.906000000000006 -19.674999999999997 49.326 -22.871 54.861000000000004 C -28.433 64.495 -40.751 67.796 -50.385 62.234 C -60.019 56.672000000000004 -63.32 44.353 -57.757999999999996 34.719 C -54.562 29.184 -49.135 25.745 -43.26899999999999 24.871000000000002 C -43.03399999999999 24.844 -42.80099999999999 24.809 -42.56699999999999 24.776000000000003 C -34.67099999999999 23.659000000000002 -27.348999999999993 19.059000000000005 -23.052999999999994 11.617000000000003 C -18.755999999999993 4.1750000000000025 -18.432999999999993 -4.465999999999996 -21.413999999999994 -11.862999999999998 C -21.501999999999995 -12.081999999999997 -21.587999999999994 -12.301999999999998 -21.681999999999995 -12.518999999999998 C -23.857999999999997 -18.034999999999997 -23.592999999999996 -24.455 -20.396999999999995 -29.99 C -14.834999999999994 -39.623999999999995 -2.516999999999996 -42.925 7.117000000000004 -37.361999999999995 C 16.750000000000004 -31.800999999999995 20.051000000000002 -19.480999999999995 14.489000000000004 -9.848999999999993 C 11.293 -4.312 5.866 -0.874 0 0" stroke-linecap="round" />
</g>
		<g transform="matrix(1.520749961167096 0 0 -1.520749961167096 89.1282445871239 -49.208197795059675)"  >
<path style="stroke: none; stroke-width: 1; stroke-dasharray: none; stroke-linecap: butt; stroke-dashoffset: 0; stroke-linejoin: miter; stroke-miterlimit: 4; fill: rgb(74,179,232); fill-rule: nonzero; opacity: 1;"  paint-order="stroke"  transform=" translate(0, 20.142)" d="M 0 0 C -11.124 0 -20.142 -9.018 -20.142 -20.142 C -20.142 -31.266 -11.123999999999999 -40.284 0 -40.284 C 11.124 -40.284 20.142 -31.266 20.142 -20.142 C 20.142 -9.018 11.124 0 0 0" stroke-linecap="round" />
</g>
		<g transform="matrix(1.520749961167096 0 0 -1.520749961167096 28.413089902751665 0)"  >
<path style="stroke: none; stroke-width: 1; stroke-dasharray: none; stroke-linecap: butt; stroke-dashoffset: 0; stroke-linejoin: miter; stroke-miterlimit: 4; fill: rgb(74,179,232); fill-rule: nonzero; opacity: 1;"  paint-order="stroke"  transform=" translate(21.63448215338215, -12.43565087844231)" d="M 0 0 C -0.235 0.027 -0.468 0.062 -0.701 0.096 C -8.598 1.213 -15.919 5.812 -20.216 13.254 C -24.513 20.695999999999998 -24.835 29.336999999999996 -21.855 36.734 C -21.767 36.953 -21.681 37.172000000000004 -21.587 37.389 C -19.411 42.906000000000006 -19.675 49.326 -22.871 54.861000000000004 C -28.433 64.495 -40.751999999999995 67.796 -50.385 62.234 C -60.019 56.672000000000004 -63.32 44.353 -57.757999999999996 34.719 C -54.562 29.184 -49.135 25.745 -43.26899999999999 24.871000000000002 C -43.03399999999999 24.844 -42.80099999999999 24.809 -42.56699999999999 24.776000000000003 C -34.67099999999999 23.659000000000002 -27.349999999999994 19.059000000000005 -23.052999999999994 11.617000000000003 C -18.755999999999993 4.1750000000000025 -18.433999999999994 -4.465999999999996 -21.413999999999994 -11.862999999999998 C -21.501999999999995 -12.081999999999997 -21.587999999999994 -12.301999999999998 -21.682999999999993 -12.518999999999998 C -23.857999999999993 -18.034999999999997 -23.593999999999994 -24.455 -20.397999999999993 -29.99 C -14.835999999999991 -39.623999999999995 -2.5169999999999924 -42.925 7.117000000000008 -37.361999999999995 C 16.750000000000007 -31.800999999999995 20.05100000000001 -19.480999999999995 14.489000000000008 -9.848999999999993 C 11.293 -4.312 5.866 -0.874 0 0" stroke-linecap="round" />
</g>
</g>
</g>
<g transform="matrix(1.9211538461538462 0 0 1.9211538461538462 840.0590315960823 506.7361087048041)" id="text-logo"  >
<g style=""  paint-order="stroke"   >
		<g transform="matrix(1 0 0 1 0 0)" id="text-logo-path-0"  >
<path style="stroke: none; stroke-width: 0; stroke-dasharray: none; stroke-linecap: butt; stroke-dashoffset: 0; stroke-linejoin: miter; stroke-miterlimit: 4; fill: rgb(74,179,232); fill-rule: nonzero; opacity: 1;"  paint-order="stroke"  transform=" translate(-166.035, 20.995)" d="M 51.04 -34.8 C 51.04 -35.26 51.04 -35.84 50.92 -36.19 C 50.58 -37.7 48.95 -39.32 47.44 -39.32 C 46.05 -39.32 44.54 -39.21 43.5 -37.93 C 42.69 -37 42.46 -35.73 42.11 -34.57 L 37.58 -14.27 L 30.86 -35.26 C 30.16 -37.7 28.77 -39.32 26.1 -39.32 C 23.66 -39.32 22.16 -37.47 21.46 -35.26 L 14.85 -14.27 L 10.09 -34.68 C 9.86 -35.84 9.51 -37 8.7 -38.05 C 7.77 -39.21 6.26 -39.32 4.87 -39.32 C 3.36 -39.32 1.74 -37.7 1.39 -36.31 C 1.39 -35.96 1.16 -35.5 1.16 -35.15 C 1.16 -34.68 1.39 -33.99 1.51 -33.52 L 8.82 -3.36 C 9.4 -1.04 11.83 0.58 14.15 0.58 C 17.75 0.58 19.6 -1.39 20.65 -4.76 L 26.1 -22.62 L 32.02 -4.29 C 33.06 -1.28 34.8 0.58 38.16 0.58 C 41.06 0.58 43.27 -1.51 43.96 -4.29 L 50.92 -33.52 C 51.04 -33.87 51.04 -34.34 51.04 -34.8 Z M 91.9 -14.73 C 91.9 -18.56 90.74 -22.5 88.07 -25.4 C 85.52 -28.19 81.58 -30.04 77.63 -30.04 C 73.69 -30.04 69.86 -28.19 67.19 -25.4 C 64.52 -22.5 63.36 -18.56 63.36 -14.73 C 63.36 -10.9 64.52 -6.96 67.19 -4.06 C 69.86 -1.16 73.8 0.58 77.75 0.58 C 81.58 0.58 85.52 -1.16 88.07 -4.06 C 90.74 -6.96 91.9 -10.9 91.9 -14.73 Z M 83.55 -14.73 C 83.55 -11.25 81.34 -7.42 77.52 -7.42 C 73.69 -7.42 71.83 -11.37 71.83 -14.73 C 71.83 -17.98 73.69 -22.04 77.52 -22.04 C 81.34 -22.04 83.55 -18.21 83.55 -14.73 Z M 125.45 -25.87 C 125.45 -28.19 123.36 -29.93 120.93 -29.93 C 118.61 -29.93 116.75 -28.3 115.24 -26.8 C 114.32 -28.65 112.92 -29.81 110.84 -29.81 C 109.68 -29.81 108.52 -29.23 107.7 -28.3 C 106.89 -27.38 106.66 -26.1 106.66 -24.94 L 106.66 -4.41 C 106.66 -1.86 108.28 0.46 110.95 0.46 C 113.74 0.46 115.24 -1.74 115.24 -4.41 L 115.24 -16.01 C 115.24 -17.4 115.48 -18.68 116.52 -19.49 C 117.91 -20.53 119.54 -21.11 121.04 -21.69 C 123.25 -22.39 125.45 -23.08 125.45 -25.87 Z M 165.27 -4.06 C 165.27 -5.34 164.22 -6.61 163.53 -7.54 L 156.1 -16.82 L 162.14 -22.62 C 162.95 -23.43 163.64 -24.71 163.64 -25.87 C 163.64 -26.1 163.53 -26.68 163.53 -26.91 C 163.18 -28.3 161.67 -29.81 160.16 -29.81 C 158.54 -29.81 157.38 -29.58 156.34 -28.42 L 147.87 -19.72 L 147.87 -37.82 C 147.87 -40.37 146.24 -42.57 143.58 -42.57 C 140.79 -42.57 139.28 -40.37 139.28 -37.82 L 139.28 -4.41 C 139.28 -1.86 140.91 0.46 143.58 0.46 C 146.36 0.46 147.87 -1.86 147.87 -4.41 L 147.87 -14.04 L 157.5 -1.62 C 158.42 -0.23 159.93 0.46 161.56 0.46 C 163.88 0.46 165.27 -1.74 165.27 -4.06 Z M 227.59 -34.8 C 227.59 -35.26 227.59 -35.84 227.47 -36.19 C 227.12 -37.7 225.5 -39.32 223.99 -39.32 C 222.6 -39.32 221.09 -39.21 220.05 -37.93 C 219.24 -37 219 -35.73 218.66 -34.57 L 214.13 -14.27 L 207.4 -35.26 C 206.71 -37.7 205.32 -39.32 202.65 -39.32 C 200.21 -39.32 198.7 -37.47 198.01 -35.26 L 191.4 -14.27 L 186.64 -34.68 C 186.41 -35.84 186.06 -37 185.25 -38.05 C 184.32 -39.21 182.81 -39.32 181.42 -39.32 C 179.91 -39.32 178.29 -37.7 177.94 -36.31 C 177.94 -35.96 177.71 -35.5 177.71 -35.15 C 177.71 -34.68 177.94 -33.99 178.06 -33.52 L 185.36 -3.36 C 185.94 -1.04 188.38 0.58 190.7 0.58 C 194.3 0.58 196.15 -1.39 197.2 -4.76 L 202.65 -22.62 L 208.56 -4.29 C 209.61 -1.28 211.35 0.58 214.71 0.58 C 217.61 0.58 219.82 -1.51 220.51 -4.29 L 227.47 -33.52 C 227.59 -33.87 227.59 -34.34 227.59 -34.8 Z M 251.28 -37.58 C 251.28 -40.25 249.08 -42.57 246.41 -42.57 C 243.62 -42.57 241.42 -40.25 241.42 -37.58 C 241.42 -34.92 243.62 -32.6 246.41 -32.6 C 249.08 -32.6 251.28 -34.92 251.28 -37.58 Z M 250.58 -4.41 L 250.58 -25.06 C 250.58 -27.61 248.96 -29.81 246.29 -29.81 C 243.51 -29.81 242 -27.61 242 -25.06 L 242 -4.41 C 242 -1.86 243.62 0.46 246.29 0.46 C 249.08 0.46 250.58 -1.74 250.58 -4.41 Z M 288.54 -9.16 C 288.54 -11.14 287.73 -12.88 286.46 -14.27 C 284.6 -16.12 282.28 -17.05 279.96 -17.98 C 278.8 -18.33 275.32 -19.37 275.32 -21 L 275.44 -21.11 C 275.55 -22.04 276.6 -22.39 277.52 -22.5 C 278.68 -22.5 279.84 -22.04 281 -21.58 C 282.05 -21.11 283.09 -20.53 284.37 -20.42 L 284.48 -20.3 C 286.34 -20.3 287.85 -22.5 287.85 -24.24 C 287.85 -25.75 286.69 -27.03 285.41 -27.96 C 283.21 -29.46 280.54 -30.04 277.87 -30.04 C 274.86 -30.04 271.84 -28.88 269.75 -26.68 C 268.01 -24.94 267.2 -22.85 267.2 -20.53 C 267.2 -15.89 270.68 -13.8 274.62 -12.3 L 276.94 -11.48 C 278.1 -11.02 280.19 -10.44 280.19 -8.82 C 280.19 -7.66 278.68 -6.96 277.64 -6.96 C 276.48 -6.96 275.32 -7.42 274.28 -7.89 C 272.88 -8.58 271.49 -9.4 269.87 -9.4 C 268.01 -9.4 266.39 -7.42 266.39 -5.68 C 266.39 -1.04 274.04 0.58 277.52 0.58 C 280.19 0.58 283.21 -0.23 285.3 -1.97 C 287.38 -3.83 288.54 -6.5 288.54 -9.16 Z M 330.91 -15.78 C 330.91 -23.55 324.88 -30.04 316.88 -30.04 C 308.52 -30.04 302.14 -23.08 302.14 -14.85 C 302.14 -11.14 302.96 -7.89 305.39 -4.87 C 308.41 -1.28 312.82 0.58 317.46 0.58 C 320.82 0.58 324.07 -0.12 326.97 -1.86 C 328.48 -2.67 330.45 -4.18 330.45 -6.15 C 330.45 -7.89 328.71 -9.63 326.85 -9.63 L 326.74 -9.63 C 326.16 -9.63 325.58 -9.51 325.11 -9.28 L 322.68 -8 C 321.17 -7.31 319.54 -6.84 317.92 -6.84 C 316.41 -6.84 315.02 -7.31 313.86 -8.24 C 312.58 -9.16 311.89 -10.44 311.31 -11.95 L 327.2 -11.95 C 329.87 -11.95 330.91 -13.11 330.91 -15.78 Z M 322.56 -17.75 L 311.08 -17.75 C 312 -20.53 313.51 -23.08 316.76 -23.08 C 320.24 -23.08 321.75 -20.65 322.56 -17.75 Z" stroke-linecap="round" />
</g>
</g>
</g>
</svg>