<?xml version="1.0" encoding="UTF-8" standalone="no" ?>
<!DOCTYPE svg PUBLIC "-//W3C//DTD SVG 1.1//EN" "http://www.w3.org/Graphics/SVG/1.1/DTD/svg11.dtd">
<svg xmlns="http://www.w3.org/2000/svg" xmlns:xlink="http://www.w3.org/1999/xlink" version="1.1" width="1280" height="1024" viewBox="0 0 1280 1024" xml:space="preserve">
<desc>Created with Fabric.js 4.4.0</desc>
<defs>
</defs>
<g transform="matrix(1 0 0 1 640 512)" id="background-logo"  >
<rect style="stroke: none; stroke-width: 0; stroke-dasharray: none; stroke-linecap: butt; stroke-dashoffset: 0; stroke-linejoin: miter; stroke-miterlimit: 4; fill: rgb(255,255,255); fill-opacity: 0; fill-rule: nonzero; opacity: 1;"  paint-order="stroke"  x="-640" y="-512" rx="0" ry="0" width="1280" height="1024" />
</g>
<g transform="matrix(1.398787405186843 0 0 1.398787405186843 290.42600729265797 512.6947148817803)" id="logo-logo"  >
<g style=""  paint-order="stroke"   >
		<g transform="matrix(1.520749961167096 0 0 -1.520749961167096 -60.71563212131406 0)"  >
<path style="stroke: none; stroke-width: 1; stroke-dasharray: none; stroke-linecap: butt; stroke-dashoffset: 0; stroke-linejoin: miter; stroke-miterlimit: 4; fill: rgb(23,53,90); fill-rule: nonzero; opacity: 1;"  paint-order="stroke"  transform=" translate(21.63448215338215, -12.43565087844231)" d="M 0 0 C -0.234 0.027 -0.467 0.062 -0.701 0.096 C -8.597 1.213 -15.919 5.812 -20.216 13.254 C -24.512 20.695999999999998 -24.835 29.336999999999996 -21.854 36.734 C -21.767 36.953 -21.68 37.172000000000004 -21.586 37.389 C -19.409999999999997 42.906000000000006 -19.674999999999997 49.326 -22.871 54.861000000000004 C -28.433 64.495 -40.751 67.796 -50.385 62.234 C -60.019 56.672000000000004 -63.32 44.353 -57.757999999999996 34.719 C -54.562 29.184 -49.135 25.745 -43.26899999999999 24.871000000000002 C -43.03399999999999 24.844 -42.80099999999999 24.809 -42.56699999999999 24.776000000000003 C -34.67099999999999 23.659000000000002 -27.348999999999993 19.059000000000005 -23.052999999999994 11.617000000000003 C -18.755999999999993 4.1750000000000025 -18.432999999999993 -4.465999999999996 -21.413999999999994 -11.862999999999998 C -21.501999999999995 -12.081999999999997 -21.587999999999994 -12.301999999999998 -21.681999999999995 -12.518999999999998 C -23.857999999999997 -18.034999999999997 -23.592999999999996 -24.455 -20.396999999999995 -29.99 C -14.834999999999994 -39.623999999999995 -2.516999999999996 -42.925 7.117000000000004 -37.361999999999995 C 16.750000000000004 -31.800999999999995 20.051000000000002 -19.480999999999995 14.489000000000004 -9.848999999999993 C 11.293 -4.312 5.866 -0.874 0 0" stroke-linecap="round" />
</g>
		<g transform="matrix(1.520749961167096 0 0 -1.520749961167096 89.1282445871239 -49.208197795059675)"  >
<path style="stroke: none; stroke-width: 1; stroke-dasharray: none; stroke-linecap: butt; stroke-dashoffset: 0; stroke-linejoin: miter; stroke-miterlimit: 4; fill: rgb(23,53,90); fill-rule: nonzero; opacity: 1;"  paint-order="stroke"  transform=" translate(0, 20.142)" d="M 0 0 C -11.124 0 -20.142 -9.018 -20.142 -20.142 C -20.142 -31.266 -11.123999999999999 -40.284 0 -40.284 C 11.124 -40.284 20.142 -31.266 20.142 -20.142 C 20.142 -9.018 11.124 0 0 0" stroke-linecap="round" />
</g>
		<g transform="matrix(1.520749961167096 0 0 -1.520749961167096 28.413089902751665 0)"  >
<path style="stroke: none; stroke-width: 1; stroke-dasharray: none; stroke-linecap: butt; stroke-dashoffset: 0; stroke-linejoin: miter; stroke-miterlimit: 4; fill: rgb(23,53,90); fill-rule: nonzero; opacity: 1;"  paint-order="stroke"  transform=" translate(21.63448215338215, -12.43565087844231)" d="M 0 0 C -0.235 0.027 -0.468 0.062 -0.701 0.096 C -8.598 1.213 -15.919 5.812 -20.216 13.254 C -24.513 20.695999999999998 -24.835 29.336999999999996 -21.855 36.734 C -21.767 36.953 -21.681 37.172000000000004 -21.587 37.389 C -19.411 42.906000000000006 -19.675 49.326 -22.871 54.861000000000004 C -28.433 64.495 -40.751999999999995 67.796 -50.385 62.234 C -60.019 56.672000000000004 -63.32 44.353 -57.757999999999996 34.719 C -54.562 29.184 -49.135 25.745 -43.26899999999999 24.871000000000002 C -43.03399999999999 24.844 -42.80099999999999 24.809 -42.56699999999999 24.776000000000003 C -34.67099999999999 23.659000000000002 -27.349999999999994 19.059000000000005 -23.052999999999994 11.617000000000003 C -18.755999999999993 4.1750000000000025 -18.433999999999994 -4.465999999999996 -21.413999999999994 -11.862999999999998 C -21.501999999999995 -12.081999999999997 -21.587999999999994 -12.301999999999998 -21.682999999999993 -12.518999999999998 C -23.857999999999993 -18.034999999999997 -23.593999999999994 -24.455 -20.397999999999993 -29.99 C -14.835999999999991 -39.623999999999995 -2.5169999999999924 -42.925 7.117000000000008 -37.361999999999995 C 16.750000000000007 -31.800999999999995 20.05100000000001 -19.480999999999995 14.489000000000008 -9.848999999999993 C 11.293 -4.312 5.866 -0.874 0 0" stroke-linecap="round" />
</g>
</g>
</g>
<g transform="matrix(1.9211538461538462 0 0 1.9211538461538462 840.059031596082 507.3618223433187)" id="text-logo"  >
<g style=""  paint-order="stroke"   >
		<g transform="matrix(1 0 0 1 0 0)" id="text-logo-path-0"  >
<path style="stroke: none; stroke-width: 0; stroke-dasharray: none; stroke-linecap: butt; stroke-dashoffset: 0; stroke-linejoin: miter; stroke-miterlimit: 4; fill: rgb(23,53,90); fill-rule: nonzero; opacity: 1;"  paint-order="stroke"  transform=" translate(-121.48, 20.995)" d="M 51.04 -34.8 C 51.04 -35.26 51.04 -35.84 50.92 -36.19 C 50.58 -37.7 48.95 -39.32 47.44 -39.32 C 46.05 -39.32 44.54 -39.21 43.5 -37.93 C 42.69 -37 42.46 -35.73 42.11 -34.57 L 37.58 -14.27 L 30.86 -35.26 C 30.16 -37.7 28.77 -39.32 26.1 -39.32 C 23.66 -39.32 22.16 -37.47 21.46 -35.26 L 14.85 -14.27 L 10.09 -34.68 C 9.86 -35.84 9.51 -37 8.7 -38.05 C 7.77 -39.21 6.26 -39.32 4.87 -39.32 C 3.36 -39.32 1.74 -37.7 1.39 -36.31 C 1.39 -35.96 1.16 -35.5 1.16 -35.15 C 1.16 -34.68 1.39 -33.99 1.51 -33.52 L 8.82 -3.36 C 9.4 -1.04 11.83 0.58 14.15 0.58 C 17.75 0.58 19.6 -1.39 20.65 -4.76 L 26.1 -22.62 L 32.02 -4.29 C 33.06 -1.28 34.8 0.58 38.16 0.58 C 41.06 0.58 43.27 -1.51 43.96 -4.29 L 50.92 -33.52 C 51.04 -33.87 51.04 -34.34 51.04 -34.8 Z M 79.17 -14.73 C 79.17 -18.56 78.01 -22.5 75.34 -25.4 C 72.79 -28.19 68.85 -30.04 64.9 -30.04 C 60.96 -30.04 57.13 -28.19 54.46 -25.4 C 51.79 -22.5 50.63 -18.56 50.63 -14.73 C 50.63 -10.9 51.79 -6.96 54.46 -4.06 C 57.13 -1.16 61.07 0.58 65.02 0.58 C 68.85 0.58 72.79 -1.16 75.34 -4.06 C 78.01 -6.96 79.17 -10.9 79.17 -14.73 Z M 70.82 -14.73 C 70.82 -11.25 68.61 -7.42 64.79 -7.42 C 60.96 -7.42 59.1 -11.37 59.1 -14.73 C 59.1 -17.98 60.96 -22.04 64.79 -22.04 C 68.61 -22.04 70.82 -18.21 70.82 -14.73 Z M 99.99 -25.87 C 99.99 -28.19 97.9 -29.93 95.47 -29.93 C 93.15 -29.93 91.29 -28.3 89.78 -26.8 C 88.86 -28.65 87.46 -29.81 85.38 -29.81 C 84.22 -29.81 83.06 -29.23 82.24 -28.3 C 81.43 -27.38 81.2 -26.1 81.2 -24.94 L 81.2 -4.41 C 81.2 -1.86 82.82 0.46 85.49 0.46 C 88.28 0.46 89.78 -1.74 89.78 -4.41 L 89.78 -16.01 C 89.78 -17.4 90.02 -18.68 91.06 -19.49 C 92.45 -20.53 94.08 -21.11 95.58 -21.69 C 97.79 -22.39 99.99 -23.08 99.99 -25.87 Z M 127.08 -4.06 C 127.08 -5.34 126.03 -6.61 125.34 -7.54 L 117.91 -16.82 L 123.95 -22.62 C 124.76 -23.43 125.45 -24.71 125.45 -25.87 C 125.45 -26.1 125.34 -26.68 125.34 -26.91 C 124.99 -28.3 123.48 -29.81 121.97 -29.81 C 120.35 -29.81 119.19 -29.58 118.15 -28.42 L 109.68 -19.72 L 109.68 -37.82 C 109.68 -40.37 108.05 -42.57 105.39 -42.57 C 102.6 -42.57 101.09 -40.37 101.09 -37.82 L 101.09 -4.41 C 101.09 -1.86 102.72 0.46 105.39 0.46 C 108.17 0.46 109.68 -1.86 109.68 -4.41 L 109.68 -14.04 L 119.31 -1.62 C 120.23 -0.23 121.74 0.46 123.37 0.46 C 125.69 0.46 127.08 -1.74 127.08 -4.06 Z M 176.67 -34.8 C 176.67 -35.26 176.67 -35.84 176.55 -36.19 C 176.2 -37.7 174.58 -39.32 173.07 -39.32 C 171.68 -39.32 170.17 -39.21 169.13 -37.93 C 168.32 -37 168.08 -35.73 167.74 -34.57 L 163.21 -14.27 L 156.48 -35.26 C 155.79 -37.7 154.4 -39.32 151.73 -39.32 C 149.29 -39.32 147.78 -37.47 147.09 -35.26 L 140.48 -14.27 L 135.72 -34.68 C 135.49 -35.84 135.14 -37 134.33 -38.05 C 133.4 -39.21 131.89 -39.32 130.5 -39.32 C 128.99 -39.32 127.37 -37.7 127.02 -36.31 C 127.02 -35.96 126.79 -35.5 126.79 -35.15 C 126.79 -34.68 127.02 -33.99 127.14 -33.52 L 134.44 -3.36 C 135.02 -1.04 137.46 0.58 139.78 0.58 C 143.38 0.58 145.23 -1.39 146.28 -4.76 L 151.73 -22.62 L 157.64 -4.29 C 158.69 -1.28 160.43 0.58 163.79 0.58 C 166.69 0.58 168.9 -1.51 169.59 -4.29 L 176.55 -33.52 C 176.67 -33.87 176.67 -34.34 176.67 -34.8 Z M 187.63 -37.58 C 187.63 -40.25 185.43 -42.57 182.76 -42.57 C 179.97 -42.57 177.77 -40.25 177.77 -37.58 C 177.77 -34.92 179.97 -32.6 182.76 -32.6 C 185.43 -32.6 187.63 -34.92 187.63 -37.58 Z M 186.93 -4.41 L 186.93 -25.06 C 186.93 -27.61 185.31 -29.81 182.64 -29.81 C 179.86 -29.81 178.35 -27.61 178.35 -25.06 L 178.35 -4.41 C 178.35 -1.86 179.97 0.46 182.64 0.46 C 185.43 0.46 186.93 -1.74 186.93 -4.41 Z M 212.16 -9.16 C 212.16 -11.14 211.35 -12.88 210.08 -14.27 C 208.22 -16.12 205.9 -17.05 203.58 -17.98 C 202.42 -18.33 198.94 -19.37 198.94 -21 L 199.06 -21.11 C 199.17 -22.04 200.22 -22.39 201.14 -22.5 C 202.3 -22.5 203.46 -22.04 204.62 -21.58 C 205.67 -21.11 206.71 -20.53 207.99 -20.42 L 208.1 -20.3 C 209.96 -20.3 211.47 -22.5 211.47 -24.24 C 211.47 -25.75 210.31 -27.03 209.03 -27.96 C 206.83 -29.46 204.16 -30.04 201.49 -30.04 C 198.48 -30.04 195.46 -28.88 193.37 -26.68 C 191.63 -24.94 190.82 -22.85 190.82 -20.53 C 190.82 -15.89 194.3 -13.8 198.24 -12.3 L 200.56 -11.48 C 201.72 -11.02 203.81 -10.44 203.81 -8.82 C 203.81 -7.66 202.3 -6.96 201.26 -6.96 C 200.1 -6.96 198.94 -7.42 197.9 -7.89 C 196.5 -8.58 195.11 -9.4 193.49 -9.4 C 191.63 -9.4 190.01 -7.42 190.01 -5.68 C 190.01 -1.04 197.66 0.58 201.14 0.58 C 203.81 0.58 206.83 -0.23 208.92 -1.97 C 211 -3.83 212.16 -6.5 212.16 -9.16 Z M 241.8 -15.78 C 241.8 -23.55 235.77 -30.04 227.77 -30.04 C 219.41 -30.04 213.03 -23.08 213.03 -14.85 C 213.03 -11.14 213.85 -7.89 216.28 -4.87 C 219.3 -1.28 223.71 0.58 228.35 0.58 C 231.71 0.58 234.96 -0.12 237.86 -1.86 C 239.37 -2.67 241.34 -4.18 241.34 -6.15 C 241.34 -7.89 239.6 -9.63 237.74 -9.63 L 237.63 -9.63 C 237.05 -9.63 236.47 -9.51 236 -9.28 L 233.57 -8 C 232.06 -7.31 230.43 -6.84 228.81 -6.84 C 227.3 -6.84 225.91 -7.31 224.75 -8.24 C 223.47 -9.16 222.78 -10.44 222.2 -11.95 L 238.09 -11.95 C 240.76 -11.95 241.8 -13.11 241.8 -15.78 Z M 233.45 -17.75 L 221.97 -17.75 C 222.89 -20.53 224.4 -23.08 227.65 -23.08 C 231.13 -23.08 232.64 -20.65 233.45 -17.75 Z" stroke-linecap="round" />
</g>
</g>
</g>
</svg>